<svg xmlns="http://www.w3.org/2000/svg" width="24" height="25" viewBox="0 0 24 25">
  <defs>
    <linearGradient id="cap" x1="0" y1="0" x2="0" y2="1">
      <stop offset="0" stop-color="#858783"/>
      <stop offset="0.55" stop-color="#747672"/>
      <stop offset="1" stop-color="#666864"/>
    </linearGradient>
  </defs>
  <path d="M3.1 4.0 H20.9 Q22.2 4 22.2 5.4 V21.2 Q22.2 23 20.5 23.4 H3.5 Q1.8 23 1.8 21.2 V5.4 Q1.8 4 3.1 4Z" fill="#171817" opacity="0.70"/>
  <path d="M3.0 1.5 H21.0 Q22.4 1.5 22.4 3.0 V19.9 Q22.4 21.4 20.9 21.4 H3.1 Q1.6 21.4 1.6 19.9 V3.0 Q1.6 1.5 3.0 1.5Z" fill="#454744" stroke="#242522" stroke-width="1.15"/>
  <path d="M4.1 2.7 H19.9 Q21.0 2.7 21.0 3.9 V18.8 Q21.0 20.0 19.8 20.0 H4.2 Q3.0 20.0 3.0 18.8 V3.9 Q3.0 2.7 4.1 2.7Z" fill="url(#cap)" stroke="#a3a5a0" stroke-width="0.65"/>
  <path d="M4.7 3.5 H19.3" stroke="#c0c1bd" stroke-width="0.55" stroke-linecap="round" opacity="0.70"/>
  <path d="M3.7 18.9 H20.3" stroke="#555753" stroke-width="0.55" stroke-linecap="round" opacity="0.72"/>
</svg>